<?xml version="1.0" encoding="UTF-8" standalone="no"?>
<!-- Created with Inkscape (http://www.inkscape.org/) -->
<svg
   xmlns:dc="http://purl.org/dc/elements/1.1/"
   xmlns:cc="http://creativecommons.org/ns#"
   xmlns:rdf="http://www.w3.org/1999/02/22-rdf-syntax-ns#"
   xmlns:svg="http://www.w3.org/2000/svg"
   xmlns="http://www.w3.org/2000/svg"
   xmlns:sodipodi="http://sodipodi.sourceforge.net/DTD/sodipodi-0.dtd"
   xmlns:inkscape="http://www.inkscape.org/namespaces/inkscape"
   width="131"
   height="131"
   id="svg2"
   sodipodi:version="0.32"
   inkscape:version="0.46"
   sodipodi:docname="scaleable_icon.svg"
   inkscape:output_extension="org.inkscape.output.svg.inkscape"
   version="1.0"
   inkscape:export-filename="/usr/local/rodja/Android/y60/res/drawable/icon.png"
   inkscape:export-xdpi="33.09"
   inkscape:export-ydpi="33.09">
  <defs
     id="defs4">
    <inkscape:perspective
       sodipodi:type="inkscape:persp3d"
       inkscape:vp_x="0 : 526.18109 : 1"
       inkscape:vp_y="0 : 1000 : 0"
       inkscape:vp_z="744.09448 : 526.18109 : 1"
       inkscape:persp3d-origin="372.04724 : 350.78739 : 1"
       id="perspective10" />
    <inkscape:perspective
       id="perspective3210"
       inkscape:persp3d-origin="372.04724 : 350.78739 : 1"
       inkscape:vp_z="744.09448 : 526.18109 : 1"
       inkscape:vp_y="0 : 1000 : 0"
       inkscape:vp_x="0 : 526.18109 : 1"
       sodipodi:type="inkscape:persp3d" />
  </defs>
  <sodipodi:namedview
     id="base"
     pagecolor="#ffffff"
     bordercolor="#666666"
     borderopacity="1.0"
     inkscape:pageopacity="0.0"
     inkscape:pageshadow="2"
     inkscape:zoom="2.1240874"
     inkscape:cx="64.814686"
     inkscape:cy="58.142616"
     inkscape:document-units="px"
     inkscape:current-layer="layer1"
     showgrid="false"
     inkscape:window-width="1366"
     inkscape:window-height="719"
     inkscape:window-x="143"
     inkscape:window-y="334" />
  <metadata
     id="metadata7">
    <rdf:RDF>
      <cc:Work
         rdf:about="">
        <dc:format>image/svg+xml</dc:format>
        <dc:type
           rdf:resource="http://purl.org/dc/dcmitype/StillImage" />
      </cc:Work>
    </rdf:RDF>
  </metadata>
  <g
     inkscape:label="Ebene 1"
     inkscape:groupmode="layer"
     id="layer1"
     transform="translate(-257.57174,-309.93395)">
    <rect
       style="fill:#565656;fill-opacity:1;stroke:#ffffff;stroke-width:2.1960001;stroke-linejoin:round;stroke-miterlimit:4;stroke-dasharray:none;stroke-opacity:1"
       id="rect2407"
       width="128.37495"
       height="114.08923"
       x="259.14053"
       y="313.97354"
       ry="11.428573" />
    <path
       transform="matrix(1.25,0,0,1.25,-103.32358,713.55186)"
       id="path3307"
       style="fill:#ffffff;fill-opacity:1;fill-rule:nonzero;stroke:none"
       d="M 388.45141,413.11092 C 388.45141,413.11092 372.34301,413.11092 372.34301,413.11092 C 372.34301,413.11092 372.34301,406.66682 372.34301,406.66682 C 372.34301,406.66682 369.11791,406.66682 369.11791,406.66682 C 369.11791,406.66682 369.11791,422.76851 369.11791,422.76851 C 369.11791,422.76851 372.34301,422.76851 372.34301,422.76851 C 372.34301,422.76851 372.34301,416.33357 372.34301,416.33357 C 372.34301,416.33357 388.45141,416.33357 388.45141,416.33357 C 388.45141,416.33357 388.45141,432.43649 388.45141,432.43649 C 388.45141,432.43649 336.90844,432.43649 336.90844,432.43649 C 336.90844,432.43649 336.90844,416.33357 336.90844,416.33357 C 336.90844,416.33357 353.01684,416.33357 353.01684,416.33357 C 353.01684,416.33357 353.01684,413.11092 353.01684,413.11092 C 353.01684,413.11092 336.90844,413.11092 336.90844,413.11092 C 336.90844,413.11092 336.90844,397.00374 336.90844,397.00374 C 336.90844,397.00374 388.45141,397.00374 388.45141,397.00374 C 388.45141,397.00374 388.45141,413.11092 388.45141,413.11092 z M 333.68823,413.11092 C 333.68823,413.11092 317.57983,413.11092 317.57983,413.11092 C 317.57983,413.11092 317.57983,416.33357 317.57983,416.33357 C 317.57983,416.33357 333.68823,416.33357 333.68823,416.33357 C 333.68823,416.33357 333.68823,432.43649 333.68823,432.43649 C 333.68823,432.43649 301.47388,432.43649 301.47388,432.43649 C 301.47388,432.43649 301.47388,422.76851 301.47388,422.76851 C 301.47388,422.76851 298.25366,422.76851 298.25366,422.76851 C 298.25366,422.76851 298.25366,432.43649 298.25366,432.43649 C 298.25366,432.43649 282.14281,432.43649 282.14281,432.43649 C 282.14281,432.43649 282.14281,397.00374 282.14281,397.00374 C 282.14281,397.00374 333.68823,397.00374 333.68823,397.00374 C 333.68823,397.00374 333.68823,413.11092 333.68823,413.11092 z M 278.91833,393.77986 C 278.91833,393.77986 278.91833,435.66157 278.91833,435.66157 C 278.91833,435.66157 391.6759,435.66157 391.6759,435.66157 C 391.6759,435.66157 391.6759,393.77986 391.6759,393.77986 C 391.6759,393.77986 278.91833,393.77986 278.91833,393.77986 z M 301.47388,406.66682 C 301.47388,406.66682 298.25366,406.66682 298.25366,406.66682 C 298.25366,406.66682 298.25366,413.11092 298.25366,413.11092 C 298.25366,413.11092 301.47388,413.11092 301.47388,413.11092 C 301.47388,413.11092 301.47388,406.66682 301.47388,406.66682 z" />
    <path
       d="M 369.15855,369.63017 C 369.15855,369.63017 355.26961,369.63017 355.26961,369.63017 C 355.26961,369.63017 355.26961,364.07396 355.26961,364.07396 C 355.26961,364.07396 352.48888,364.07396 352.48888,364.07396 C 352.48888,364.07396 352.48888,377.95711 352.48888,377.95711 C 352.48888,377.95711 355.26961,377.95711 355.26961,377.95711 C 355.26961,377.95711 355.26961,372.40879 355.26961,372.40879 C 355.26961,372.40879 369.15855,372.40879 369.15855,372.40879 C 369.15855,372.40879 369.15855,386.293 369.15855,386.293 C 369.15855,386.293 324.71732,386.293 324.71732,386.293 C 324.71732,386.293 324.71732,372.40879 324.71732,372.40879 C 324.71732,372.40879 338.60625,372.40879 338.60625,372.40879 C 338.60625,372.40879 338.60625,369.63017 338.60625,369.63017 C 338.60625,369.63017 324.71732,369.63017 324.71732,369.63017 C 324.71732,369.63017 324.71732,355.74228 324.71732,355.74228 C 324.71732,355.74228 369.15855,355.74228 369.15855,355.74228 C 369.15855,355.74228 369.15855,369.63017 369.15855,369.63017 z M 321.9408,369.63017 C 321.9408,369.63017 308.05186,369.63017 308.05186,369.63017 C 308.05186,369.63017 308.05186,372.40879 308.05186,372.40879 C 308.05186,372.40879 321.9408,372.40879 321.9408,372.40879 C 321.9408,372.40879 321.9408,386.293 321.9408,386.293 C 321.9408,386.293 294.16504,386.293 294.16504,386.293 C 294.16504,386.293 294.16504,377.95711 294.16504,377.95711 C 294.16504,377.95711 291.38852,377.95711 291.38852,377.95711 C 291.38852,377.95711 291.38852,386.293 291.38852,386.293 C 291.38852,386.293 277.49747,386.293 277.49747,386.293 C 277.49747,386.293 277.49747,355.74228 277.49747,355.74228 C 277.49747,355.74228 321.9408,355.74228 321.9408,355.74228 C 321.9408,355.74228 321.9408,369.63017 321.9408,369.63017 z M 274.71726,352.9626 C 274.71726,352.9626 274.71726,389.07372 274.71726,389.07372 C 274.71726,389.07372 371.93876,389.07372 371.93876,389.07372 C 371.93876,389.07372 371.93876,352.9626 371.93876,352.9626 C 371.93876,352.9626 274.71726,352.9626 274.71726,352.9626 z M 294.16504,364.07396 C 294.16504,364.07396 291.38852,364.07396 291.38852,364.07396 C 291.38852,364.07396 291.38852,369.63017 291.38852,369.63017 C 291.38852,369.63017 294.16504,369.63017 294.16504,369.63017 C 294.16504,369.63017 294.16504,364.07396 294.16504,364.07396 z"
       style="fill:#ffffff;fill-opacity:1;fill-rule:nonzero;stroke:none"
       id="path3333" />
  </g>
</svg>
