<?xml version="1.0" encoding="UTF-8" standalone="no"?>
<!-- Created with Inkscape (http://www.inkscape.org/) -->
<svg
   xmlns:dc="http://purl.org/dc/elements/1.1/"
   xmlns:cc="http://creativecommons.org/ns#"
   xmlns:rdf="http://www.w3.org/1999/02/22-rdf-syntax-ns#"
   xmlns:svg="http://www.w3.org/2000/svg"
   xmlns="http://www.w3.org/2000/svg"
   xmlns:xlink="http://www.w3.org/1999/xlink"
   xmlns:sodipodi="http://sodipodi.sourceforge.net/DTD/sodipodi-0.dtd"
   xmlns:inkscape="http://www.inkscape.org/namespaces/inkscape"
   width="131"
   height="131"
   id="svg2"
   sodipodi:version="0.32"
   inkscape:version="0.46"
   sodipodi:docname="icon.svg"
   inkscape:output_extension="org.inkscape.output.svg.inkscape"
   version="1.0"
   inkscape:export-filename="/usr/local/rodja/Android/y60/res/drawable/icon.png"
   inkscape:export-xdpi="33.09"
   inkscape:export-ydpi="33.09">
  <defs
     id="defs4">
    <linearGradient
       inkscape:collect="always"
       id="linearGradient3243">
      <stop
         style="stop-color:#000000;stop-opacity:1;"
         offset="0"
         id="stop3245" />
      <stop
         style="stop-color:#000000;stop-opacity:0;"
         offset="1"
         id="stop3247" />
    </linearGradient>
    <inkscape:perspective
       sodipodi:type="inkscape:persp3d"
       inkscape:vp_x="0 : 526.18109 : 1"
       inkscape:vp_y="0 : 1000 : 0"
       inkscape:vp_z="744.09448 : 526.18109 : 1"
       inkscape:persp3d-origin="372.04724 : 350.78739 : 1"
       id="perspective10" />
    <inkscape:perspective
       id="perspective3210"
       inkscape:persp3d-origin="372.04724 : 350.78739 : 1"
       inkscape:vp_z="744.09448 : 526.18109 : 1"
       inkscape:vp_y="0 : 1000 : 0"
       inkscape:vp_x="0 : 526.18109 : 1"
       sodipodi:type="inkscape:persp3d" />
    <linearGradient
       inkscape:collect="always"
       xlink:href="#linearGradient3243"
       id="linearGradient3249"
       x1="248.50111"
       y1="316.40054"
       x2="314.0148"
       y2="316.40054"
       gradientUnits="userSpaceOnUse" />
  </defs>
  <sodipodi:namedview
     id="base"
     pagecolor="#ffffff"
     bordercolor="#666666"
     borderopacity="1.0"
     inkscape:pageopacity="0.0"
     inkscape:pageshadow="2"
     inkscape:zoom="2.1240874"
     inkscape:cx="64.814686"
     inkscape:cy="58.142616"
     inkscape:document-units="px"
     inkscape:current-layer="layer1"
     showgrid="false"
     inkscape:window-width="1366"
     inkscape:window-height="719"
     inkscape:window-x="143"
     inkscape:window-y="334" />
  <metadata
     id="metadata7">
    <rdf:RDF>
      <cc:Work
         rdf:about="">
        <dc:format>image/svg+xml</dc:format>
        <dc:type
           rdf:resource="http://purl.org/dc/dcmitype/StillImage" />
      </cc:Work>
    </rdf:RDF>
  </metadata>
  <g
     inkscape:label="Ebene 1"
     inkscape:groupmode="layer"
     id="layer1"
     transform="translate(-257.57174,-309.93395)">
    <rect
       style="fill:#565656;fill-opacity:1;stroke:#ffffff;stroke-width:2.1960001;stroke-linejoin:round;stroke-miterlimit:4;stroke-dasharray:none;stroke-opacity:1"
       id="rect2407"
       width="128.37495"
       height="114.08923"
       x="259.14053"
       y="313.97354"
       ry="11.428573" />
    <text
       xml:space="preserve"
       style="font-size:36px;font-style:normal;font-variant:normal;font-weight:normal;font-stretch:normal;text-align:start;line-height:125%;writing-mode:lr-tb;text-anchor:start;fill:#ffffff;fill-opacity:1;stroke:none;stroke-width:1px;stroke-linecap:butt;stroke-linejoin:miter;stroke-opacity:1;font-family:Bitstream Vera Sans;-inkscape-font-specification:Bitstream Vera Sans"
       x="290.64148"
       y="408.16092"
       id="text2403"
       sodipodi:linespacing="125%"><tspan
         sodipodi:role="line"
         id="tspan2405"
         x="290.64148"
         y="408.16092"
         style="fill:#ffffff;fill-opacity:1">Y60</tspan></text>
    <path
       transform="matrix(1.25,0,0,1.25,-103.32358,713.55186)"
       id="path3307"
       style="fill:#ffffff;fill-opacity:1;fill-rule:nonzero;stroke:none"
       d="M 388.45141,413.11092 C 388.45141,413.11092 372.34301,413.11092 372.34301,413.11092 C 372.34301,413.11092 372.34301,406.66682 372.34301,406.66682 C 372.34301,406.66682 369.11791,406.66682 369.11791,406.66682 C 369.11791,406.66682 369.11791,422.76851 369.11791,422.76851 C 369.11791,422.76851 372.34301,422.76851 372.34301,422.76851 C 372.34301,422.76851 372.34301,416.33357 372.34301,416.33357 C 372.34301,416.33357 388.45141,416.33357 388.45141,416.33357 C 388.45141,416.33357 388.45141,432.43649 388.45141,432.43649 C 388.45141,432.43649 336.90844,432.43649 336.90844,432.43649 C 336.90844,432.43649 336.90844,416.33357 336.90844,416.33357 C 336.90844,416.33357 353.01684,416.33357 353.01684,416.33357 C 353.01684,416.33357 353.01684,413.11092 353.01684,413.11092 C 353.01684,413.11092 336.90844,413.11092 336.90844,413.11092 C 336.90844,413.11092 336.90844,397.00374 336.90844,397.00374 C 336.90844,397.00374 388.45141,397.00374 388.45141,397.00374 C 388.45141,397.00374 388.45141,413.11092 388.45141,413.11092 z M 333.68823,413.11092 C 333.68823,413.11092 317.57983,413.11092 317.57983,413.11092 C 317.57983,413.11092 317.57983,416.33357 317.57983,416.33357 C 317.57983,416.33357 333.68823,416.33357 333.68823,416.33357 C 333.68823,416.33357 333.68823,432.43649 333.68823,432.43649 C 333.68823,432.43649 301.47388,432.43649 301.47388,432.43649 C 301.47388,432.43649 301.47388,422.76851 301.47388,422.76851 C 301.47388,422.76851 298.25366,422.76851 298.25366,422.76851 C 298.25366,422.76851 298.25366,432.43649 298.25366,432.43649 C 298.25366,432.43649 282.14281,432.43649 282.14281,432.43649 C 282.14281,432.43649 282.14281,397.00374 282.14281,397.00374 C 282.14281,397.00374 333.68823,397.00374 333.68823,397.00374 C 333.68823,397.00374 333.68823,413.11092 333.68823,413.11092 z M 278.91833,393.77986 C 278.91833,393.77986 278.91833,435.66157 278.91833,435.66157 C 278.91833,435.66157 391.6759,435.66157 391.6759,435.66157 C 391.6759,435.66157 391.6759,393.77986 391.6759,393.77986 C 391.6759,393.77986 278.91833,393.77986 278.91833,393.77986 z M 301.47388,406.66682 C 301.47388,406.66682 298.25366,406.66682 298.25366,406.66682 C 298.25366,406.66682 298.25366,413.11092 298.25366,413.11092 C 298.25366,413.11092 301.47388,413.11092 301.47388,413.11092 C 301.47388,413.11092 301.47388,406.66682 301.47388,406.66682 z" />
    <path
       d="M 376.48231,344.62393 C 376.48231,344.62393 360.37391,344.62393 360.37391,344.62393 C 360.37391,344.62393 360.37391,338.17983 360.37391,338.17983 C 360.37391,338.17983 357.14881,338.17983 357.14881,338.17983 C 357.14881,338.17983 357.14881,354.28152 357.14881,354.28152 C 357.14881,354.28152 360.37391,354.28152 360.37391,354.28152 C 360.37391,354.28152 360.37391,347.84658 360.37391,347.84658 C 360.37391,347.84658 376.48231,347.84658 376.48231,347.84658 C 376.48231,347.84658 376.48231,363.9495 376.48231,363.9495 C 376.48231,363.9495 324.93933,363.9495 324.93933,363.9495 C 324.93933,363.9495 324.93933,347.84658 324.93933,347.84658 C 324.93933,347.84658 341.04773,347.84658 341.04773,347.84658 C 341.04773,347.84658 341.04773,344.62393 341.04773,344.62393 C 341.04773,344.62393 324.93933,344.62393 324.93933,344.62393 C 324.93933,344.62393 324.93933,328.51675 324.93933,328.51675 C 324.93933,328.51675 376.48231,328.51675 376.48231,328.51675 C 376.48231,328.51675 376.48231,344.62393 376.48231,344.62393 z M 321.71912,344.62393 C 321.71912,344.62393 305.61072,344.62393 305.61072,344.62393 C 305.61072,344.62393 305.61072,347.84658 305.61072,347.84658 C 305.61072,347.84658 321.71912,347.84658 321.71912,347.84658 C 321.71912,347.84658 321.71912,363.9495 321.71912,363.9495 C 321.71912,363.9495 289.50477,363.9495 289.50477,363.9495 C 289.50477,363.9495 289.50477,354.28152 289.50477,354.28152 C 289.50477,354.28152 286.28456,354.28152 286.28456,354.28152 C 286.28456,354.28152 286.28456,363.9495 286.28456,363.9495 C 286.28456,363.9495 270.17371,363.9495 270.17371,363.9495 C 270.17371,363.9495 270.17371,328.51675 270.17371,328.51675 C 270.17371,328.51675 321.71912,328.51675 321.71912,328.51675 C 321.71912,328.51675 321.71912,344.62393 321.71912,344.62393 z M 266.94922,325.29287 C 266.94922,325.29287 266.94922,367.17458 266.94922,367.17458 C 266.94922,367.17458 379.7068,367.17458 379.7068,367.17458 C 379.7068,367.17458 379.7068,325.29287 379.7068,325.29287 C 379.7068,325.29287 266.94922,325.29287 266.94922,325.29287 z M 289.50477,338.17983 C 289.50477,338.17983 286.28456,338.17983 286.28456,338.17983 C 286.28456,338.17983 286.28456,344.62393 286.28456,344.62393 C 286.28456,344.62393 289.50477,344.62393 289.50477,344.62393 C 289.50477,344.62393 289.50477,338.17983 289.50477,338.17983 z"
       style="fill:#ffffff;fill-opacity:1;fill-rule:nonzero;stroke:none"
       id="path3333" />
  </g>
</svg>
